<svg width="23" height="23" viewBox="0 0 23 23" fill="none" xmlns="http://www.w3.org/2000/svg">
<mask id="mask0_1632_69331" style="mask-type:luminance" maskUnits="userSpaceOnUse" x="0" y="0" width="23" height="23">
<path d="M22.0097 0.32016H0.144043V22.1858H22.0097V0.32016Z" fill="white"/>
</mask>
<g mask="url(#mask0_1632_69331)">
<path opacity="0.3" d="M4.69915 10.3419C4.19624 10.3419 3.78809 10.7501 3.78809 11.253C3.78809 11.7559 4.19624 12.164 4.69915 12.164H11.0766C11.5795 12.164 11.9877 11.7559 11.9877 11.253C11.9877 10.7501 11.5795 10.3419 11.0766 10.3419H4.69915Z" fill="black"/>
<path d="M10.4327 16.0752C10.0765 16.4306 10.0765 17.0082 10.4327 17.3635C10.788 17.7197 11.3656 17.7197 11.7209 17.3635L17.1874 11.8971C17.5326 11.5527 17.5445 10.997 17.2147 10.6371L12.2038 5.17069C11.864 4.79988 11.2873 4.77528 10.9165 5.11511C10.5457 5.45493 10.5211 6.03163 10.8609 6.40244L15.2823 11.2256L10.4327 16.0752Z" fill="black"/>
</g>
</svg>
