<svg width="20" height="21" viewBox="0 0 20 21" fill="none" xmlns="http://www.w3.org/2000/svg">
<path d="M3.33341 15.2856C2.41217 15.2811 1.66675 14.5329 1.66675 13.6106V4.88352C1.66675 3.26464 2.97911 1.95227 4.598 1.95227H13.3251C14.2474 1.95227 14.9956 2.69769 15.0001 3.61894H5.63654C4.36456 3.61894 3.33341 4.65008 3.33341 5.92206V15.2856ZM6.67508 5.2856H16.6584C17.5835 5.2856 18.3334 6.03553 18.3334 6.9606V16.9439C18.3334 17.869 17.5835 18.6189 16.6584 18.6189H6.67508C5.75 18.6189 5.00008 17.869 5.00008 16.9439V6.9606C5.00008 6.03553 5.75 5.2856 6.67508 5.2856ZM7.50008 6.95227C7.03984 6.95227 6.66675 7.32537 6.66675 7.7856V16.1189C6.66675 16.5792 7.03984 16.9523 7.50008 16.9523H15.8334C16.2937 16.9523 16.6667 16.5792 16.6667 16.1189V7.7856C16.6667 7.32537 16.2937 6.95227 15.8334 6.95227H7.50008Z" fill="#6D5650"/>
</svg>
