<svg width="14" height="12" viewBox="0 0 14 12" fill="none" xmlns="http://www.w3.org/2000/svg">
<path d="M12.9999 5.33317H0.999919C0.631729 5.33317 0.333252 5.63165 0.333252 5.99984C0.333252 6.36803 0.631729 6.6665 0.999919 6.6665H12.9999C13.3681 6.6665 13.6666 6.36803 13.6666 5.99984C13.6666 5.63165 13.3681 5.33317 12.9999 5.33317ZM12.9999 0.666504H0.999919C0.631729 0.666504 0.333252 0.964981 0.333252 1.33317C0.333252 1.70136 0.631729 1.99984 0.999919 1.99984H12.9999C13.3681 1.99984 13.6666 1.70136 13.6666 1.33317C13.6666 0.964981 13.3681 0.666504 12.9999 0.666504ZM0.999919 11.3332H7.66659C8.03478 11.3332 8.33325 11.0347 8.33325 10.6665C8.33325 10.2983 8.03478 9.99984 7.66659 9.99984H0.999919C0.631729 9.99984 0.333252 10.2983 0.333252 10.6665C0.333252 11.0347 0.631729 11.3332 0.999919 11.3332Z" fill="#7D6866"/>
</svg>
