<svg width="18" height="18" viewBox="0 0 18 18" fill="none" xmlns="http://www.w3.org/2000/svg">
<path opacity="0.3" d="M9.00002 3.42154L5.82618 7.23014C5.56101 7.54835 5.08809 7.59134 4.76988 7.32617C4.45167 7.06099 4.40868 6.58807 4.67385 6.26986L8.42385 1.76986C8.7237 1.41005 9.27634 1.41005 9.57618 1.76986L13.3262 6.26986C13.5914 6.58807 13.5484 7.06099 13.2302 7.32617C12.9119 7.59134 12.439 7.54835 12.1739 7.23014L9.00002 3.42154Z" fill="white"/>
<path fill-rule="evenodd" clip-rule="evenodd" d="M2.46063 6.75H15.5395C15.9537 6.75 16.2895 7.08579 16.2895 7.5C16.2895 7.56132 16.2819 7.62241 16.2671 7.6819L14.6761 14.0457C14.4257 15.0473 13.5257 15.75 12.4933 15.75H5.50679C4.47434 15.75 3.57438 15.0473 3.32397 14.0457L1.73302 7.6819C1.63256 7.28006 1.87688 6.87285 2.27872 6.77239C2.33822 6.75752 2.39931 6.75 2.46063 6.75ZM9.00004 9C8.58583 9 8.25004 9.33579 8.25004 9.75V12.75C8.25004 13.1642 8.58583 13.5 9.00004 13.5C9.41426 13.5 9.75004 13.1642 9.75004 12.75V9.75C9.75004 9.33579 9.41426 9 9.00004 9ZM5.22359 9.10222C4.82349 9.20943 4.58605 9.62068 4.69326 10.0208L5.46971 12.9186C5.57692 13.3187 5.98817 13.5561 6.38827 13.4489C6.78837 13.3417 7.02581 12.9304 6.9186 12.5303L6.14215 9.63255C6.03494 9.23245 5.62369 8.99502 5.22359 9.10222ZM12.7765 9.10222C12.3764 8.99502 11.9651 9.23245 11.8579 9.63255L11.0815 12.5303C10.9743 12.9304 11.2117 13.3417 11.6118 13.4489C12.0119 13.5561 12.4232 13.3187 12.5304 12.9186L13.3068 10.0208C13.414 9.62068 13.1766 9.20943 12.7765 9.10222Z" fill="white"/>
</svg>
