<svg width="22" height="20" viewBox="0 0 22 20" fill="none" xmlns="http://www.w3.org/2000/svg">
<path d="M0.335156 0.422312C0.150391 0.516844 0 0.770359 0 0.976608C0 1.19145 0.150391 1.43637 0.34375 1.5352C0.502734 1.61684 0.592969 1.62114 1.9207 1.62114H3.33438L4.88555 7.06098L6.44102 12.5008L6.31641 12.75C6.10156 13.1754 6.00703 13.5106 6.00703 13.8672C6.00703 14.761 6.58711 15.5086 7.45508 15.7364C7.63984 15.7836 7.94922 15.8008 8.59375 15.8051C9.38438 15.8094 9.45312 15.8137 9.25977 15.861C8.90312 15.9469 8.63242 16.1016 8.35313 16.3766C7.59258 17.1415 7.59258 18.3317 8.35313 19.0879C9.12227 19.8528 10.3082 19.8528 11.0645 19.0922C11.6531 18.4993 11.7992 17.6399 11.4426 16.8836C11.2191 16.4067 10.6348 15.9469 10.1277 15.8438C10.0246 15.8266 11.2535 15.8094 12.9551 15.8094C15.4172 15.8094 15.9242 15.818 15.748 15.861C15.3914 15.9469 15.1207 16.1016 14.8414 16.3766C14.0809 17.1415 14.0809 18.3317 14.8414 19.0879C15.6105 19.8528 16.7965 19.8528 17.5527 19.0922C18.3176 18.3231 18.3176 17.1415 17.5527 16.3766C17.282 16.1016 17.007 15.9469 16.6504 15.861C16.4656 15.8137 16.6031 15.8094 17.673 15.8051C18.8246 15.8008 18.9234 15.7965 19.0781 15.7149C19.2715 15.6161 19.4219 15.3711 19.4219 15.1563C19.4219 14.9415 19.2715 14.6965 19.0781 14.5977C18.9105 14.5118 18.8375 14.5118 13.3547 14.5118C8.15117 14.5118 7.79023 14.5075 7.64844 14.4344C7.30039 14.2625 7.21445 13.8844 7.4207 13.459L7.53672 13.2227H13.2215C18.859 13.2227 18.9105 13.2227 19.0824 13.1368C19.2027 13.0723 19.2801 12.995 19.3359 12.8661C19.4434 12.634 22 3.67934 22 3.53325C22 3.33989 21.841 3.09067 21.6562 2.99614C21.4887 2.9102 21.4199 2.9102 13.2645 2.9102H5.04023L4.75234 1.88755C4.40859 0.675827 4.35273 0.551218 4.1293 0.426609C3.96602 0.332077 3.93164 0.332077 2.23008 0.332077C0.588672 0.336374 0.485547 0.340672 0.335156 0.422312Z" fill="#F09A38"/>
</svg>
