<svg width="24" height="24" viewBox="0 0 24 24" fill="none" xmlns="http://www.w3.org/2000/svg">
<path opacity="0.3" fill-rule="evenodd" clip-rule="evenodd" d="M3.87657 3.74564L22.2292 8.6632C22.7626 8.80614 23.0792 9.35448 22.9363 9.88794L20.3481 19.5472C20.2051 20.0807 19.6568 20.3972 19.1233 20.2543L0.770742 15.3367C0.237276 15.1938 -0.0793066 14.6455 0.0636351 14.112L2.65183 4.45274C2.79477 3.91928 3.3431 3.60269 3.87657 3.74564ZM10.4647 15.8637C12.5985 16.4354 14.7919 15.1691 15.3637 13.0352C15.9354 10.9014 14.6691 8.70804 12.5352 8.13627C10.4014 7.5645 8.20802 8.83083 7.63625 10.9647C7.06448 13.0986 8.33081 15.2919 10.4647 15.8637Z" fill="#8F3FE0"/>
<path fill-rule="evenodd" clip-rule="evenodd" d="M2 6H21C21.5523 6 22 6.44772 22 7V17C22 17.5523 21.5523 18 21 18H2C1.44772 18 1 17.5523 1 17V7C1 6.44772 1.44772 6 2 6ZM11.5 16C13.7091 16 15.5 14.2091 15.5 12C15.5 9.79086 13.7091 8 11.5 8C9.29086 8 7.5 9.79086 7.5 12C7.5 14.2091 9.29086 16 11.5 16ZM11.5 14C12.6046 14 13.5 13.1046 13.5 12C13.5 10.8954 12.6046 10 11.5 10C10.3954 10 9.5 10.8954 9.5 12C9.5 13.1046 10.3954 14 11.5 14Z" fill="#8F3FE0"/>
</svg>
