<svg width="24" height="24" viewBox="0 0 24 24" fill="none" xmlns="http://www.w3.org/2000/svg">
<path fill-rule="evenodd" clip-rule="evenodd" d="M3 10.05V7.99998C3 7.4477 3.44772 6.99998 4 6.99998H9V8.99998C9 9.55227 9.44772 9.99998 10 9.99998C10.5523 9.99998 11 9.55227 11 8.99998V6.99998L21 6.99998C21.5523 6.99998 22 7.4477 22 7.99998V10.05C20.8589 10.2816 20 11.2905 20 12.5C20 13.7095 20.8589 14.7183 22 14.95V17C22 17.5523 21.5523 18 21 18H11V16C11 15.4477 10.5523 15 10 15C9.44772 15 9 15.4477 9 16V18H4C3.44772 18 3 17.5523 3 17V14.95C4.14112 14.7183 5 13.7095 5 12.5C5 11.2905 4.14112 10.2816 3 10.05ZM10 11C9.44772 11 9 11.4477 9 12V13C9 13.5523 9.44772 14 10 14C10.5523 14 11 13.5523 11 13V12C11 11.4477 10.5523 11 10 11Z" fill="#54A05B"/>
</svg>
