<svg width="40" height="40" viewBox="0 0 40 40" fill="none" xmlns="http://www.w3.org/2000/svg">
<path opacity="0.3" d="M34.5634 8.9206C35.1595 8.21926 36.2114 8.13397 36.9127 8.73012C37.6141 9.32626 37.6993 10.3781 37.1032 11.0794L22.9365 27.7461C22.331 28.4584 21.2581 28.5335 20.5594 27.9124L13.0594 21.2457C12.3714 20.6342 12.3094 19.5807 12.9209 18.8927C13.5325 18.2048 14.5859 18.1428 15.2739 18.7543L21.5003 24.2889L34.5634 8.9206Z" fill="#0D0C0E"/>
<path d="M26.2301 10.5872C26.8263 9.88588 27.8781 9.8006 28.5795 10.3967C29.2808 10.9929 29.3661 12.0447 28.7699 12.7461L14.6033 29.4127C13.9978 30.1251 12.9249 30.2001 12.2261 29.579L4.72611 22.9123C4.03814 22.3008 3.97617 21.2473 4.5877 20.5594C5.19923 19.8714 6.25268 19.8094 6.94065 20.421L13.1671 25.9556L26.2301 10.5872Z" fill="#0D0C0E"/>
</svg>
