<svg width="14" height="20" viewBox="0 0 14 20" fill="none" xmlns="http://www.w3.org/2000/svg">
<path d="M4.05078 0.0390625C3.21484 0.167969 2.37109 0.601562 1.76172 1.20703C1.07812 1.89453 0.648438 2.82031 0.570312 3.77734L0.542969 4.10156H1.13672H1.72656V3.96484C1.72656 3.74219 1.83984 3.24219 1.95703 2.96875C2.23828 2.29688 2.83984 1.69531 3.51562 1.40625C4.61719 0.9375 5.87891 1.19141 6.72266 2.04297C7.22656 2.55469 7.5 3.12891 7.57031 3.83594L7.59766 4.10156H8.18359H8.76953L8.74219 3.76562C8.62109 2.28906 7.65234 0.933594 6.29688 0.347656C5.78125 0.125 5.375 0.0351562 4.79297 0.0195312C4.51562 0.0117188 4.17969 0.0195312 4.05078 0.0390625Z" fill="#F09A38"/>
<path d="M4.24609 2.39846C3.91797 2.4805 3.67188 2.62112 3.42188 2.87112C3.16797 3.12503 3.01172 3.40237 2.94141 3.74221C2.91406 3.87893 2.89844 4.67971 2.89844 6.14065V8.32815L2.77344 8.30471C2.09766 8.16018 1.53125 8.31643 1.07812 8.76956C0.824219 9.02346 0.667969 9.30081 0.597656 9.64065C0.539062 9.91409 0.539062 13.6914 0.597656 14.211C0.839844 16.4219 2.17578 18.336 4.17578 19.336C6.56641 20.5274 9.47656 20.0821 11.4102 18.2227C12.5547 17.1211 13.2344 15.7539 13.4023 14.211C13.4609 13.6914 13.457 11.0782 13.4023 10.8125C13.3281 10.4766 13.1719 10.1953 12.918 9.94143C12.5117 9.53518 11.9609 9.35159 11.4219 9.44534C11.2734 9.46878 11.1289 9.50003 11.0977 9.51175C11.0586 9.52737 11.0234 9.48831 10.9883 9.38675C10.7148 8.62503 9.875 8.13675 9.07812 8.27346C8.92969 8.2969 8.78516 8.32815 8.75391 8.33987C8.71484 8.3555 8.67969 8.31643 8.64453 8.21487C8.55859 7.9805 8.35547 7.68753 8.15234 7.50784C7.72266 7.12893 7.16406 7.00003 6.54297 7.13284L6.41406 7.15628V5.55471C6.41406 4.50393 6.39844 3.87893 6.37109 3.74221C6.29688 3.40628 6.14062 3.12503 5.88672 2.86721C5.44922 2.42581 4.83594 2.25003 4.24609 2.39846ZM4.92969 3.59378C5.03125 3.64456 5.11328 3.72659 5.16406 3.82815C5.24219 3.9805 5.24219 4.05081 5.24219 7.87112V11.7578H5.82812H6.41406V10.2344C6.41406 8.78128 6.41797 8.69925 6.49219 8.55471C6.58203 8.37893 6.80469 8.24221 7 8.24221C7.19531 8.24221 7.41797 8.37893 7.50781 8.55471C7.58203 8.69925 7.58594 8.78128 7.58594 10.2344V11.7578H8.17188H8.75781V10.8203C8.75781 9.95315 8.76562 9.86721 8.83594 9.72659C8.92578 9.55081 9.14844 9.41409 9.34375 9.41409C9.53906 9.41409 9.76172 9.55081 9.85156 9.72659C9.92188 9.86721 9.92969 9.95315 9.92969 10.8203V11.7578H10.5156H11.1016V11.4063C11.1016 11.1367 11.1172 11.0157 11.1758 10.9063C11.2617 10.7383 11.5039 10.586 11.6836 10.586C11.8828 10.586 12.1055 10.7227 12.1992 10.9024C12.2773 11.0625 12.2812 11.0977 12.2617 12.6524C12.2461 14.0625 12.2383 14.2774 12.168 14.5899C11.8516 15.9922 11.0625 17.1641 9.92188 17.9297C9.33594 18.3242 8.72266 18.5782 7.97266 18.7383C7.51562 18.836 6.48438 18.836 6.02344 18.7383C3.88672 18.2852 2.32031 16.7344 1.83203 14.5899C1.75781 14.2617 1.75 14.0821 1.73828 12.0625C1.72266 9.9219 1.72266 9.88675 1.80078 9.7305C1.89453 9.55081 2.11719 9.41409 2.3125 9.41409C2.50781 9.41409 2.73047 9.55081 2.82031 9.72659C2.89453 9.87503 2.89844 9.95315 2.89844 11.9922V14.1016H3.48438H4.07031V9.03128C4.07422 4.22659 4.07812 3.95706 4.14453 3.83206C4.23047 3.6719 4.47656 3.51565 4.64844 3.51565C4.71875 3.51565 4.84766 3.55081 4.92969 3.59378Z" fill="#F09A38"/>
</svg>
