<svg width="21" height="20" viewBox="0 0 21 20" fill="none" xmlns="http://www.w3.org/2000/svg">
<path fill-rule="evenodd" clip-rule="evenodd" d="M7.12013 19.8233L10.4997 18.1876L13.8793 19.8233L15.4169 16.3979L19.0572 15.4786L18.0332 11.8663L20.2309 8.82204L17.1246 6.71304L16.8513 2.9684L13.1161 3.34951L10.4997 0.656616L7.88337 3.34951L4.14815 2.9684L3.87487 6.71304L0.768555 8.82204L2.96621 11.8663L1.94228 15.4786L5.58258 16.3979L7.12013 19.8233ZM11.857 7.93062C12.2099 7.55494 12.8036 7.54564 13.168 7.91009C13.5167 8.25874 13.5255 8.82125 13.1879 9.18065L8.94897 13.6939C8.59612 14.0695 8.00243 14.0788 7.63798 13.7144C7.28933 13.3657 7.28051 12.8032 7.61808 12.4438L11.857 7.93062ZM9.40175 7.79305C9.40175 8.70335 8.66497 9.43994 7.75487 9.43994C6.84645 9.43994 6.10799 8.70335 6.10799 7.79305C6.10799 6.88276 6.84645 6.14617 7.75487 6.14617C8.66497 6.14617 9.40175 6.88276 9.40175 7.79305ZM11.5975 13.2826C11.5975 14.1929 12.336 14.9295 13.2444 14.9295C14.1545 14.9295 14.8913 14.1929 14.8913 13.2826C14.8913 12.3706 14.1545 11.6357 13.2444 11.6357C12.336 11.6357 11.5975 12.3706 11.5975 13.2826Z" fill="#44A9A9"/>
</svg>
