<svg width="24" height="24" viewBox="0 0 24 24" fill="none" xmlns="http://www.w3.org/2000/svg">
<path d="M6.70711 11.7071C6.31658 12.0976 5.68342 12.0976 5.29289 11.7071C4.90237 11.3166 4.90237 10.6834 5.29289 10.2929L11.2929 4.29289C11.6715 3.91431 12.2811 3.90107 12.6757 4.26285L18.6757 9.76284C19.0828 10.136 19.1103 10.7686 18.7372 11.1757C18.364 11.5828 17.7314 11.6103 17.3243 11.2372L12.0301 6.38414L6.70711 11.7071Z" fill="#54A05B"/>
<path opacity="0.3" d="M6.70711 18.7071C6.31658 19.0976 5.68342 19.0976 5.29289 18.7071C4.90237 18.3166 4.90237 17.6834 5.29289 17.2929L11.2929 11.2929C11.6715 10.9143 12.2811 10.9011 12.6757 11.2628L18.6757 16.7628C19.0828 17.136 19.1103 17.7686 18.7372 18.1757C18.364 18.5828 17.7314 18.6103 17.3243 18.2372L12.0301 13.3841L6.70711 18.7071Z" fill="#54A05B"/>
</svg>
