<svg width="22" height="16" viewBox="0 0 22 16" fill="none" xmlns="http://www.w3.org/2000/svg">
<path d="M9.77539 0.978889C7.06406 1.39139 4.33555 2.93397 1.76172 5.5078C0.915234 6.35428 0.279297 7.09764 0.133203 7.39842C0.0386719 7.59608 0.0214844 7.69491 0.0214844 7.99998C0.0214844 8.48553 0.124609 8.69608 0.670313 9.32772C2.55234 11.5105 5.01445 13.3926 7.15 14.2863C8.62813 14.9008 9.74531 15.1156 11.275 15.0769C12.7316 15.0426 13.8832 14.7547 15.3613 14.0586C17.0844 13.2551 19.1512 11.6824 20.741 9.97655C21.8625 8.76912 21.9785 8.58436 21.9785 7.99998C21.9785 7.50155 21.8797 7.30389 21.2695 6.6035C19.6195 4.71287 17.6945 3.15311 15.8082 2.18201C14.5191 1.5203 13.4148 1.14647 12.2031 0.974593C11.6402 0.897249 10.3082 0.897249 9.77539 0.978889ZM11.825 3.33787C12.4523 3.44959 13.0797 3.69881 13.6426 4.06834C13.9734 4.28319 14.7168 5.02655 14.9316 5.35741C15.4688 6.17811 15.7223 7.016 15.7266 7.9828C15.7309 9.51678 15.052 10.8746 13.8145 11.8027C12.998 12.4172 12.0527 12.7265 10.9914 12.7265C8.37031 12.7265 6.26914 10.6211 6.27344 8.00428C6.27773 6.73241 6.70312 5.66248 7.5625 4.76014C8.07383 4.22303 8.61953 3.8492 9.25117 3.59998C9.53477 3.48827 10.0762 3.33787 10.334 3.3035C10.6348 3.26053 11.5199 3.28201 11.825 3.33787Z" fill="#F09A38"/>
<path d="M10.5062 4.64842C9.6769 4.78163 8.90346 5.21991 8.37924 5.86444C8.11284 6.191 7.80776 6.79686 7.70463 7.20506C7.60151 7.63905 7.6101 8.43397 7.72612 8.86366C8.04838 10.0496 8.96362 10.9562 10.1839 11.2914C10.6007 11.4074 11.43 11.3988 11.8726 11.2742C13.6687 10.7672 14.7128 8.99686 14.2874 7.18358C14.1972 6.80116 13.8878 6.1867 13.6214 5.86444C13.1874 5.32733 12.457 4.86327 11.8167 4.71717C11.4558 4.63124 10.8328 4.60116 10.5062 4.64842Z" fill="#F09A38"/>
</svg>
