<svg width="30" height="29" viewBox="0 0 30 29" fill="none" xmlns="http://www.w3.org/2000/svg">
<path fill-rule="evenodd" clip-rule="evenodd" d="M14.1309 0.364403L1.59519 8.02514C0.604347 8.63066 2.95988e-05 9.70819 2.78155e-05 10.8694L0 25.6667C0 27.5077 1.49238 29.0001 3.33333 29.0001L26.6667 29.0001C28.5076 29.0001 30 27.5077 30 25.6667V10.8694C30 9.70819 29.3957 8.63066 28.4049 8.02514L15.8691 0.364403C15.3356 0.038363 14.6645 0.038363 14.1309 0.364403ZM15 16C15.6722 15.2164 16.927 14 18 14C19.8993 14 21 15.6145 21 17.5C21 19.5 19 21.6667 15 24C11 21.6667 9 19.4556 9 17.3669C9 15.4815 10.1007 14 12 14C13.073 14 14.3278 15.2164 15 16Z" fill="black"/>
</svg>
