<svg width="24" height="24" viewBox="0 0 24 24" fill="none" xmlns="http://www.w3.org/2000/svg">
<path fill-rule="evenodd" clip-rule="evenodd" d="M4 6H20C20.5523 6 21 6.44772 21 7V8C21 8.55228 20.5523 9 20 9H4C3.44772 9 3 8.55228 3 8V7C3 6.44772 3.44772 6 4 6ZM5 11H10C10.5523 11 11 11.4477 11 12V19C11 19.5523 10.5523 20 10 20H5C4.44772 20 4 19.5523 4 19V12C4 11.4477 4.44772 11 5 11ZM14 11H19C19.5523 11 20 11.4477 20 12V19C20 19.5523 19.5523 20 19 20H14C13.4477 20 13 19.5523 13 19V12C13 11.4477 13.4477 11 14 11Z" fill="#2970DA"/>
<path opacity="0.3" d="M14.4454 2.16793C14.9049 1.86158 15.5258 1.98576 15.8322 2.44528C16.1385 2.90481 16.0143 3.52568 15.5548 3.83203L12.0001 6.20183L8.44541 3.83203C7.98588 3.52568 7.8617 2.90481 8.16806 2.44528C8.47441 1.98576 9.09528 1.86158 9.55481 2.16793L12.0001 3.79813L14.4454 2.16793Z" fill="#2970DA"/>
</svg>
