<svg width="16" height="14" viewBox="0 0 16 14" fill="none" xmlns="http://www.w3.org/2000/svg">
<path d="M7.775 0.221875C7.70312 0.259375 7.63125 0.33125 7.59375 0.40625C7.53438 0.521875 7.53125 0.5875 7.53125 1.45312C7.53125 2.31875 7.53438 2.38438 7.59375 2.5C7.66563 2.64062 7.84375 2.75 8 2.75C8.15 2.75 8.32188 2.64688 8.4 2.50625C8.46562 2.38438 8.46875 2.35625 8.46875 1.45625C8.46875 0.5875 8.46562 0.521875 8.40625 0.40625C8.29063 0.178125 8.00938 0.096875 7.775 0.221875Z" fill="#F09A38"/>
<path d="M4.42182 1.60938C4.18745 1.69376 4.06557 1.92813 4.12807 2.17188C4.1562 2.27501 4.27495 2.40938 4.8062 2.94688C5.49995 3.64063 5.60307 3.71563 5.82807 3.67501C5.97807 3.64688 6.14682 3.49063 6.19057 3.34063C6.26557 3.09688 6.21557 3.01876 5.53745 2.33438C5.19682 1.99376 4.8812 1.69063 4.82807 1.65938C4.69057 1.57501 4.56245 1.55938 4.42182 1.60938Z" fill="#F09A38"/>
<path d="M11.2687 1.60938C11.1781 1.64063 10.9781 1.81875 10.5219 2.27188C9.9125 2.88125 9.78125 3.04375 9.78125 3.20313C9.78125 3.40938 9.96875 3.63438 10.1719 3.675C10.3906 3.71563 10.4812 3.65313 11.1344 3.00313C11.475 2.66563 11.7812 2.34375 11.8156 2.2875C12.0469 1.92188 11.675 1.4625 11.2687 1.60938Z" fill="#F09A38"/>
<path d="M5.28754 4.95937C5.23129 4.9875 5.15942 5.04688 5.12817 5.09063C5.09692 5.13437 4.81254 5.99375 4.50004 7C4.18754 8.00625 3.92192 8.84688 3.91567 8.86562C3.90317 8.89687 4.73129 8.90625 8.00004 8.90625C11.6 8.90625 12.0969 8.9 12.0813 8.85938C12.0719 8.83438 11.8188 8.02187 11.5188 7.05625C11.2157 6.0875 10.9407 5.2375 10.9063 5.16562C10.8657 5.075 10.8063 5.01562 10.7219 4.96875C10.5969 4.90625 10.55 4.90625 7.99379 4.90625C5.65942 4.90625 5.38129 4.9125 5.28754 4.95937Z" fill="#F09A38"/>
<path d="M0.534454 11.5844C-0.0436709 13.4469 -0.0467959 13.4563 0.0907041 13.65C0.234454 13.8563 0.012579 13.8438 3.81258 13.8438C6.8282 13.8438 7.2657 13.8375 7.34383 13.7969C7.4407 13.7469 7.53133 13.6063 7.53133 13.5094C7.53133 13.4594 7.21258 12.425 6.5282 10.2406L6.4032 9.84376H3.7407H1.0782L0.534454 11.5844Z" fill="#F09A38"/>
<path d="M9.44062 10.3344C8.93437 11.9344 8.46875 13.4531 8.46875 13.5062C8.46875 13.6063 8.55937 13.7469 8.65625 13.7969C8.73437 13.8375 9.17187 13.8438 12.1875 13.8438C15.575 13.8438 15.6281 13.8438 15.75 13.7812C15.8812 13.7156 16 13.5344 16 13.4C16.0031 13.3594 15.7594 12.5437 15.4625 11.5875L14.9219 9.84375H12.2594H9.59687L9.44062 10.3344Z" fill="#F09A38"/>
</svg>
