<svg width="94" height="106" viewBox="0 0 94 106" fill="none" xmlns="http://www.w3.org/2000/svg">
<path d="M4.7128 23.889L4.71285 23.889L42.7915 1.64094C42.7915 1.64094 42.7915 1.64091 42.7916 1.64091C45.396 0.119703 48.6039 0.119703 51.2083 1.64091C51.2083 1.64091 51.2084 1.64094 51.2084 1.64094L89.2872 23.889L89.2872 23.889C91.8924 25.4106 93.5 28.226 93.5 31.2756L93.5 74.724C93.5 77.7737 91.8924 80.5887 89.2872 82.1108L51.2083 104.359C48.6039 105.88 45.396 105.88 42.7916 104.359L4.71285 82.1108C2.10774 80.5888 0.499999 77.7737 0.499999 74.724L0.499997 31.2756C0.499997 28.226 2.10776 25.4106 4.7128 23.889Z" stroke="#F09A38" stroke-opacity="0.25"/>
</svg>
