<svg width="40" height="40" viewBox="0 0 40 40" fill="none" xmlns="http://www.w3.org/2000/svg">
<path opacity="0.3" fill-rule="evenodd" clip-rule="evenodd" d="M10.8333 26.6667H12.4999C13.8806 26.6667 14.9999 27.786 14.9999 29.1667V32.5001C14.9999 33.8808 13.8806 35.0001 12.4999 35.0001H10.8333C9.45254 35.0001 8.33325 33.8808 8.33325 32.5001V29.1667C8.33325 27.786 9.45254 26.6667 10.8333 26.6667ZM27.4999 26.6667H29.1666C30.5473 26.6667 31.6666 27.786 31.6666 29.1667V32.5001C31.6666 33.8808 30.5473 35.0001 29.1666 35.0001H27.4999C26.1192 35.0001 24.9999 33.8808 24.9999 32.5001V29.1667C24.9999 27.786 26.1192 26.6667 27.4999 26.6667Z" fill="black"/>
<path fill-rule="evenodd" clip-rule="evenodd" d="M8.33333 6.66663H31.6667C33.5076 6.66663 35 8.15901 35 9.99996V28.3333C35 30.1742 33.5076 31.6666 31.6667 31.6666H8.33333C6.49238 31.6666 5 30.1742 5 28.3333V9.99996C5 8.15901 6.49238 6.66663 8.33333 6.66663ZM25.8333 25C29.055 25 31.6667 22.3883 31.6667 19.1666C31.6667 15.945 29.055 13.3333 25.8333 13.3333C22.6117 13.3333 20 15.945 20 19.1666C20 22.3883 22.6117 25 25.8333 25ZM25.8333 21.6666C27.214 21.6666 28.3333 20.5473 28.3333 19.1666C28.3333 17.7859 27.214 16.6666 25.8333 16.6666C24.4526 16.6666 23.3333 17.7859 23.3333 19.1666C23.3333 20.5473 24.4526 21.6666 25.8333 21.6666ZM11.6667 13.3333C12.5871 13.3333 13.3333 14.0795 13.3333 15V18.3333C13.3333 19.2538 12.5871 20 11.6667 20C10.7462 20 10 19.2538 10 18.3333V15C10 14.0795 10.7462 13.3333 11.6667 13.3333Z" fill="black"/>
</svg>
