<svg width="23" height="23" viewBox="0 0 23 23" fill="none" xmlns="http://www.w3.org/2000/svg">
<path fill-rule="evenodd" clip-rule="evenodd" d="M10.6231 18.1138L17.3326 12.361C17.5335 12.1887 17.5567 11.8862 17.3845 11.6853C17.3688 11.6671 17.3519 11.6501 17.3337 11.6344L10.6242 5.84528C10.4239 5.6724 10.1213 5.69468 9.94841 5.89505C9.87333 5.98206 9.83203 6.09315 9.83203 6.20807L9.83203 17.75C9.83203 18.0147 10.0466 18.2292 10.3112 18.2292C10.4256 18.2292 10.5362 18.1883 10.6231 18.1138Z" fill="#F09A38"/>
<path opacity="0.3" d="M5.27067 5.74997L7.18734 5.74997C7.45197 5.74997 7.6665 5.9645 7.6665 6.22914L7.6665 17.7291C7.6665 17.9938 7.45197 18.2083 7.18734 18.2083L5.27067 18.2083C5.00603 18.2083 4.7915 17.9938 4.7915 17.7291L4.7915 6.22914C4.7915 5.9645 5.00603 5.74997 5.27067 5.74997Z" fill="#F09A38"/>
</svg>
