<svg width="29" height="29" viewBox="0 0 29 29" fill="none" xmlns="http://www.w3.org/2000/svg">
<path d="M26.5059 12.5057H2.00586C1.03936 12.5057 0.255859 13.2892 0.255859 14.2557C0.255859 15.2222 1.03936 16.0057 2.00586 16.0057H26.5059C27.4724 16.0057 28.2559 15.2222 28.2559 14.2557C28.2559 13.2892 27.4724 12.5057 26.5059 12.5057Z" fill="black"/>
<path d="M16.0059 26.5057L16.0059 2.00574C16.0059 1.03924 15.2224 0.255737 14.2559 0.255737C13.2894 0.255737 12.5059 1.03924 12.5059 2.00574L12.5059 26.5057C12.5059 27.4722 13.2894 28.2557 14.2559 28.2557C15.2224 28.2557 16.0059 27.4722 16.0059 26.5057Z" fill="black"/>
</svg>
