<svg width="40" height="40" viewBox="0 0 40 40" fill="none" xmlns="http://www.w3.org/2000/svg">
<path opacity="0.3" d="M30.0002 23.3333C27.2387 23.3333 25.0002 21.0948 25.0002 18.3333C25.0002 15.5719 27.2387 13.3333 30.0002 13.3333C32.7616 13.3333 35.0002 15.5719 35.0002 18.3333C35.0002 21.0948 32.7616 23.3333 30.0002 23.3333ZM15.0002 18.3333C11.3183 18.3333 8.3335 15.3486 8.3335 11.6667C8.3335 7.98477 11.3183 5 15.0002 5C18.6821 5 21.6668 7.98477 21.6668 11.6667C21.6668 15.3486 18.6821 18.3333 15.0002 18.3333Z" fill="black"/>
<path d="M29.3353 25.0011C35.0128 25.0632 39.6486 27.9337 39.9975 34.0001C40.0115 34.2444 39.9975 35.0001 39.0933 35.0001H32.6667C32.6667 31.2485 31.4272 27.7865 29.3353 25.0011ZM0.00108614 33.6654C0.647098 25.7109 7.10319 21.6667 14.9722 21.6667C22.952 21.6667 29.5081 25.4887 29.9965 33.6667C30.016 33.9925 29.9965 35.0001 28.7445 35.0001C22.5685 35.0001 13.3912 35.0001 1.2125 35.0001C0.79452 35.0001 -0.0341029 34.0987 0.00108614 33.6654Z" fill="black"/>
</svg>
