<svg width="16" height="21" viewBox="0 0 16 21" fill="none" xmlns="http://www.w3.org/2000/svg">
<path fill-rule="evenodd" clip-rule="evenodd" d="M7.63142 0.569107L0 2V11.283C0 14.2174 1.51165 16.9448 4 18.5L7.47 20.6687C7.79427 20.8714 8.20573 20.8714 8.53 20.6687L12 18.5C14.4883 16.9448 16 14.2174 16 11.283V2L8.36858 0.569107C8.12498 0.523433 7.87502 0.523433 7.63142 0.569107ZM6.50422 12.4625C6.69588 12.6542 6.93547 12.75 7.17505 12.75C7.41463 12.75 7.65422 12.6542 7.84588 12.4625L11.6792 8.62917C12.0625 8.24583 12.0625 7.67083 11.6792 7.2875C11.2959 6.90417 10.7209 6.90417 10.3375 7.2875L7.17505 10.45L5.92922 9.20417C5.5938 8.82083 4.97088 8.82083 4.58755 9.20417C4.20422 9.5875 4.20422 10.1625 4.58755 10.5458L6.50422 12.4625Z" fill="#F09A38"/>
</svg>
