<svg width="18" height="17" viewBox="0 0 18 17" fill="none" xmlns="http://www.w3.org/2000/svg">
<path fill-rule="evenodd" clip-rule="evenodd" d="M8.99979 14L4.91541 16.1473C4.42656 16.4043 3.82194 16.2163 3.56493 15.7275C3.4626 15.5328 3.42728 15.3099 3.46446 15.0931L4.24451 10.5451L0.940172 7.32417C0.544689 6.93866 0.536597 6.30555 0.922098 5.91007C1.07561 5.75258 1.27675 5.6501 1.49439 5.61847L6.06086 4.95493L8.10305 0.816996C8.34747 0.321742 8.9471 0.118403 9.44235 0.362825C9.63957 0.460156 9.79919 0.619783 9.89652 0.816996L11.9387 4.95493L16.5052 5.61847C17.0517 5.69789 17.4304 6.20533 17.351 6.75188C17.3194 6.96952 17.2169 7.17066 17.0594 7.32417L13.7551 10.5451L14.5351 15.0931C14.6285 15.6375 14.2629 16.1544 13.7186 16.2478C13.5018 16.2849 13.2788 16.2496 13.0842 16.1473L8.99979 14Z" fill="#CD5656"/>
</svg>
