<svg width="16" height="15" viewBox="0 0 16 15" fill="none" xmlns="http://www.w3.org/2000/svg">
<path d="M7.42937 0.756231C7.60898 0.203445 8.39102 0.203444 8.57063 0.75623L9.88592 4.80426C9.96624 5.05147 10.1966 5.21885 10.4566 5.21885H14.7129C15.2941 5.21885 15.5358 5.96262 15.0656 6.30426L11.6221 8.80608C11.4118 8.95886 11.3238 9.22968 11.4042 9.4769L12.7194 13.5249C12.899 14.0777 12.2664 14.5374 11.7961 14.1957L8.35267 11.6939C8.14238 11.5411 7.85762 11.5411 7.64733 11.6939L4.20387 14.1957C3.73364 14.5374 3.10096 14.0777 3.28057 13.5249L4.59585 9.4769C4.67617 9.22968 4.58818 8.95886 4.37789 8.80608L0.934431 6.30426C0.464203 5.96262 0.705868 5.21885 1.2871 5.21885H5.54345C5.80338 5.21885 6.03376 5.05147 6.11408 4.80426L7.42937 0.756231Z" fill="#F09A38"/>
</svg>
