<svg width="24" height="24" viewBox="0 0 24 24" fill="none" xmlns="http://www.w3.org/2000/svg">
<path d="M7 15C7.55228 15 8 15.4477 8 16C8 16.5523 7.55228 17 7 17H6C4.34315 17 3 15.6569 3 14V7C3 5.34315 4.34315 4 6 4H18C19.6569 4 21 5.34315 21 7V14C21 15.6569 19.6569 17 18 17H17C16.4477 17 16 16.5523 16 16C16 15.4477 16.4477 15 17 15H18C18.5523 15 19 14.5523 19 14V7C19 6.44772 18.5523 6 18 6H6C5.44772 6 5 6.44772 5 7V14C5 14.5523 5.44772 15 6 15H7Z" fill="white"/>
<path fill-rule="evenodd" clip-rule="evenodd" d="M8 20H16L12 15L8 20Z" fill="white"/>
</svg>
