<svg width="20" height="20" viewBox="0 0 20 20" fill="none" xmlns="http://www.w3.org/2000/svg">
<path d="M4.03408 0.0264683C3.05961 0.145617 2.11919 0.596678 1.39579 1.29455C0.642606 2.0222 0.166013 3.00517 0.0426099 4.069C-0.0169642 4.57538 -0.0127089 11.7413 0.0468652 12.269C0.166013 13.3498 0.685159 14.4009 1.45537 15.1157C1.97877 15.5966 2.73621 16.0179 3.37025 16.1753L3.65536 16.2477L3.66812 17.8136L3.68089 19.3795L3.80855 19.5668C4.06386 19.9242 4.57024 20.0647 4.93194 19.8774C5.01279 19.8349 6.25534 19.0221 7.68937 18.0647L10.2979 16.3242H13.1106C15.7702 16.3242 15.9446 16.32 16.3489 16.2391C18.2893 15.8434 19.7319 14.2562 19.9531 12.269C20.0127 11.7413 20.017 4.57538 19.9574 4.069C19.7872 2.59667 18.9659 1.34561 17.6808 0.592422C17.3617 0.40519 16.8468 0.200935 16.434 0.0988083C16.0638 0.0094471 16.034 0.0094471 10.1915 0.000936508C6.96172 -0.00331879 4.19152 0.0094471 4.03408 0.0264683ZM15.851 5.54559C15.9446 5.59239 16.0638 5.68176 16.1149 5.73707C16.434 6.0775 16.4042 6.69026 16.0595 7.01366C15.7787 7.27749 16.1574 7.26047 10 7.26047C5.01705 7.26047 4.36173 7.25196 4.22131 7.19239C3.88514 7.05196 3.65961 6.7243 3.65961 6.36686C3.65961 5.92005 3.89791 5.60516 4.34046 5.46899C4.40003 5.45197 6.97449 5.4392 10.0638 5.44346L15.6808 5.45197L15.851 5.54559ZM13.9915 9.15408C14.6383 9.42642 14.7234 10.3158 14.1361 10.7285L13.9489 10.8562L10.0936 10.869C7.4298 10.8775 6.18726 10.869 6.07662 10.8349C5.45109 10.6562 5.26386 9.77109 5.75322 9.31578C6.00002 9.08599 5.83832 9.0945 9.99149 9.09025C13.3659 9.09025 13.851 9.09876 13.9915 9.15408Z" fill="#F09A38"/>
</svg>
