<svg width="24" height="24" viewBox="0 0 24 24" fill="none" xmlns="http://www.w3.org/2000/svg">
<path d="M13 6H4C2.89543 6 2 6.89543 2 8V16C2 17.1046 2.89543 18 4 18H13C14.1046 18 15 17.1046 15 16V8C15 6.89543 14.1046 6 13 6Z" fill="#151416"/>
<path opacity="0.3" fill-rule="evenodd" clip-rule="evenodd" d="M21.9998 8.41418V15.5858C21.9998 16.138 21.5521 16.5858 20.9998 16.5858C20.7346 16.5858 20.4803 16.4804 20.2927 16.2929L16.707 12.7071C16.3164 12.3165 16.3164 11.6834 16.707 11.2929L20.2927 7.70708C20.6833 7.31655 21.3164 7.31655 21.707 7.70708C21.8945 7.89461 21.9998 8.14897 21.9998 8.41418Z" fill="#151416"/>
</svg>
