<svg width="20" height="18" viewBox="0 0 20 18" fill="none" xmlns="http://www.w3.org/2000/svg">
<path d="M12.6036 0.972712C11.3573 1.50797 10.2829 1.98852 10.2165 2.04322C10.1461 2.09792 10.0758 2.20732 10.0485 2.29718C9.98986 2.48862 9.98595 5.32117 10.0406 5.95801C10.2126 7.90368 10.8455 9.29456 12.1387 10.5526C12.7208 11.1191 13.471 11.6856 14.3188 12.1935C14.9986 12.6038 15.0064 12.6038 15.6784 12.2014C17.9757 10.8183 19.2338 9.32973 19.7299 7.39578C19.9526 6.5128 20.0034 5.89159 19.9995 3.96545C19.9956 2.24638 19.9917 2.20341 19.7651 2.02759C19.5698 1.87522 15.1549 -0.000124931 14.9947 -0.000124931C14.9166 0.00378227 14.014 0.36713 12.6036 0.972712ZM17.1357 3.8248C17.3701 3.93029 17.4834 4.11001 17.4834 4.37569C17.4834 4.53978 17.46 4.62182 17.3858 4.72731C17.0927 5.14145 14.8032 7.96229 14.7056 8.0248C14.647 8.06778 14.5141 8.10684 14.4165 8.11466C14.0805 8.14201 14.0101 8.07168 13.2287 6.9074C12.463 5.76266 12.42 5.66889 12.5606 5.37587C12.6739 5.14145 12.8654 5.02034 13.1272 5.02034C13.4397 5.02034 13.5452 5.1141 14.0219 5.83299L14.4243 6.44247L15.4479 5.16489C16.0144 4.46164 16.5145 3.86778 16.5692 3.84043C16.7958 3.73104 16.9208 3.72713 17.1357 3.8248Z" fill="#F09A38"/>
<path d="M0.871255 3.82476C0.589953 3.91853 0.375069 4.07871 0.234418 4.28969C0.0117209 4.62569 0 4.72727 0 6.18066V7.50122H4.50865H9.01729L8.9626 7.25508C8.83367 6.62606 8.78288 6.04392 8.76334 4.9109L8.74381 3.75053H4.90716C1.32056 3.75443 1.0627 3.75834 0.871255 3.82476Z" fill="#F09A38"/>
<path d="M0.00781395 13.2719L0.0195349 16.546L0.121116 16.7648C0.179721 16.8859 0.289116 17.05 0.371163 17.132C0.453209 17.2141 0.617302 17.3235 0.738418 17.3821L0.957209 17.4836H10.0019H19.0465L19.2653 17.3821C19.5427 17.2531 19.7537 17.0422 19.8826 16.7648L19.9842 16.546L19.9959 13.2719C19.9998 11.4747 19.992 10.0018 19.9764 10.0018C19.9568 10.0018 19.8826 10.0956 19.8084 10.2089C19.4333 10.7676 18.6363 11.5997 17.976 12.1272C17.2415 12.7132 15.9756 13.522 15.5771 13.6626C15.2997 13.7603 14.7058 13.7603 14.4285 13.6626C14.194 13.5806 13.5103 13.1782 12.9086 12.7718C11.8928 12.0842 10.8887 11.1543 10.3339 10.3847L10.0605 10.0057L5.02828 10.0018H0L0.00781395 13.2719ZM5.96204 12.6038C6.13395 12.7289 6.2199 12.8695 6.23944 13.057C6.26679 13.2836 6.18083 13.479 5.9933 13.6196L5.84874 13.7329L4.47739 13.7447C3.72335 13.7525 3.04744 13.7447 2.97711 13.7329C2.79739 13.7017 2.55516 13.4556 2.52 13.2719C2.48093 13.0688 2.52391 12.8773 2.64502 12.7328C2.84037 12.5062 2.85209 12.5023 4.42269 12.514C5.80186 12.5218 5.86046 12.5257 5.96204 12.6038Z" fill="#F09A38"/>
</svg>
