<?xml version="1.0" encoding="UTF-8"?>
<!DOCTYPE svg PUBLIC "-//W3C//DTD SVG 1.1//EN" "http://www.w3.org/Graphics/SVG/1.1/DTD/svg11.dtd">
<!-- Creator: CorelDRAW -->
<svg xmlns="http://www.w3.org/2000/svg" xml:space="preserve" width="108.373mm" height="104.996mm" version="1.1" style="shape-rendering:geometricPrecision; text-rendering:geometricPrecision; image-rendering:optimizeQuality; fill-rule:evenodd; clip-rule:evenodd"
viewBox="0 0 11083.72 1838.55"
 xmlns:xlink="http://www.w3.org/1999/xlink">
 <defs>
  <style type="text/css">
   <![CDATA[
    .fil1 {fill:#F09A38}
    .fil0 {fill:#F09A38;fill-rule:nonzero}
   ]]>
  </style>
 </defs>
 <g id="Слой_x0020_1">
  <metadata id="CorelCorpID_0Corel-Layer"/>
  <path class="fil0" d="M3420.87 1073.92l-180.22 243.43 -839.24 0 0 -793.51 839.24 0 180.22 243.43 -112.98 153.32 112.98 153.32zm7662.85 -550.08l-418.27 418.27 0 373.89 -239.4 0 0 -373.89 -419.62 -418.27 285.13 0 254.19 254.19 254.19 -254.19 283.78 0zm-1088.81 792.16l-239.4 0 0 -193.67 -72.62 -71.28 -457.28 0 0 264.95 -239.4 0 0 -792.16 828.47 0 180.22 243.43 -137.18 184.26 137.18 137.18 0 227.3zm-246.12 -532.59l-63.21 -83.39 -459.97 0 0 170.81 459.97 0 63.21 -87.42zm-891.4 532.59l-239.4 0 0 -193.67 -72.62 -71.28 -457.28 0 0 264.95 -239.4 0 0 -792.16 828.47 0 180.22 243.43 -137.18 184.26 137.18 137.18 0 227.3zm-246.12 -532.59l-63.21 -83.39 -459.97 0 0 170.81 459.97 0 63.21 -87.42zm-1131.9 532.59l0 -227.3 -481.49 0 0 227.3 -239.4 0 0 -611.94 180.22 -180.22 601.19 0 180.22 180.22 0 611.94 -240.74 0zm0 -402.13l0 -212.5 -481.49 0 0 212.5 481.49 0zm-761.8 -390.03l-176.19 177.53 -532.6 0 0 438.45 680.54 0 -176.19 176.19 -564.87 0 -178.88 -178.88 0 -433.06 180.22 -180.22 767.96 0zm-1017.83 0l-418.27 418.27 0 373.89 -239.4 0 0 -373.89 -419.62 -418.27 285.13 0 254.19 254.19 254.19 -254.19 283.78 0zm-1202.08 611.94l-180.22 180.22 -601.19 0 -180.22 -180.22 0 -611.94 239.4 0 0 615.98 481.49 0 0 -615.98 239.4 0 1.35 611.94zm-1339.03 -368.51l-57.83 -65.9 -459.97 0 0 138.53 459.97 0 57.83 -72.63zm0 306.65l-57.83 -72.62 -459.97 0 0 138.52 459.97 0 57.83 -65.9z"/>
  <path class="fil1" d="M919.28 498.77c232.24,0 420.51,188.27 420.51,420.51 0,232.25 -188.27,420.51 -420.51,420.51 -232.25,0 -420.51,-188.27 -420.51,-420.51 0,-232.24 188.27,-420.51 420.51,-420.51zm-0.01 -498.77c507.7,0 919.27,411.57 919.27,919.27 0,28.68 -1.38,57.04 -3.95,85.05 -83.07,-393.29 -288.23,-664.06 -645.52,-782.15l32.22 144.58c-89.66,-49.13 -192.58,-77.07 -302.03,-77.07 -260.92,0 -484.77,158.72 -580.26,384.88l0 -0.02c50.46,-236.58 212.77,-406.05 470.14,-518.48l-66.59 -139.02c57.2,-11.14 116.25,-17.04 176.71,-17.04zm869.83 1217.36c-123.81,361.38 -466.47,621.19 -869.83,621.19 -198.05,0 -381.48,-62.63 -531.55,-169.18 382.23,124.81 719.38,82.54 1000.36,-167.89l-141.34 -44.39c181.18,-110.55 302.13,-310.06 302.13,-537.82 0,-143 -47.71,-274.84 -128.03,-380.54l0.51 0.39c179.65,162 245.26,387.29 213.95,666.4l153.81 11.85zm-1562.77 305.96c-140.94,-161.55 -226.34,-372.82 -226.34,-604.05 0,-370.78 219.54,-690.26 535.7,-835.61 -299.38,268.67 -431.44,581.86 -355.04,950.51l109.2 -100.29c7.77,340.97 286.58,614.99 629.42,614.99 26.61,0 52.83,-1.66 78.57,-4.87l-0.39 0.16c-230.12,74.58 -458.03,18.76 -684.08,-147.92l-87.03 127.08z"/>
 </g>
</svg>
